<svg xmlns="http://www.w3.org/2000/svg" viewBox="0 0 1024 1024">
  <defs>
    <radialGradient id="light" cx="35%" cy="32%" r="85%">
      <stop offset="0%" stop-color="#FFFFFF" stop-opacity="0.55"/>
      <stop offset="55%" stop-color="#FAF5E9" stop-opacity="0"/>
    </radialGradient>
    <filter id="soft"><feGaussianBlur stdDeviation="1.4"/></filter>
    <filter id="softer"><feGaussianBlur stdDeviation="3"/></filter>
  </defs>
  <!-- perf: feTurbulence(grain noise) 廃止 - GPU重く31枚並ぶと致命的 -->
  <rect width="1024" height="1024" fill="#FAF5E9"/>
  <rect width="1024" height="1024" fill="url(#light)"/>

  <g>
    <path d="M 615 510 Q 600 470 640 458 Q 700 442 760 460 Q 815 478 822 510 Q 822 542 760 558 Q 700 575 640 562 Q 605 552 615 510 Z" fill="#5C2D5E" opacity="0.25" filter="url(#softer)" transform="translate(2 3)"/>
<path d="M 615 510 Q 600 470 640 458 Q 700 442 760 460 Q 815 478 822 510 Q 822 542 760 558 Q 700 575 640 562 Q 605 552 615 510 Z" fill="#5C2D5E" opacity="0.62"/>
<path d="M 615 510 Q 600 470 640 458 Q 700 442 760 460 Q 815 478 822 510 Q 822 542 760 558 Q 700 575 640 562 Q 605 552 615 510 Z" fill="#5C2D5E" opacity="0.4"/>
    <!-- stripes/skin texture -->
    <g stroke="#1C1813" stroke-width="1" fill="none" opacity="0.18" stroke-linecap="round">
      <path d="M 640 488 Q 720 478 800 488"/>
      <path d="M 635 510 Q 720 502 805 510"/>
      <path d="M 640 532 Q 720 525 800 532"/>
    </g>
    <!-- small "eyes" (skin marks) -->
    <g fill="#1C1813" opacity="0.4">
      <ellipse cx="660" cy="498" rx="3" ry="2"/>
      <ellipse cx="700" cy="478" rx="3" ry="2"/>
      <ellipse cx="745" cy="500" rx="3" ry="2"/>
      <ellipse cx="780" cy="525" rx="3" ry="2"/>
      <ellipse cx="690" cy="540" rx="3" ry="2"/>
      <ellipse cx="725" cy="555" rx="3" ry="2"/>
    </g>
    <!-- highlights -->
    <ellipse cx="680" cy="478" rx="22" ry="6" fill="#FFFFFF" opacity="0.4"/>
    <ellipse cx="675" cy="475" rx="9" ry="2.5" fill="#FFFFFF" opacity="0.7"/>
  </g>
</svg>