<svg xmlns="http://www.w3.org/2000/svg" viewBox="0 0 1024 1024">
  <defs>
    <radialGradient id="light" cx="35%" cy="32%" r="85%">
      <stop offset="0%" stop-color="#FFFFFF" stop-opacity="0.55"/>
      <stop offset="55%" stop-color="#FAF5E9" stop-opacity="0"/>
    </radialGradient>
    <filter id="soft"><feGaussianBlur stdDeviation="1.4"/></filter>
    <filter id="softer"><feGaussianBlur stdDeviation="3"/></filter>
  </defs>
  <!-- perf: feTurbulence(grain noise) 廃止 - GPU重く31枚並ぶと致命的 -->
  <rect width="1024" height="1024" fill="#FAF5E9"/>
  <rect width="1024" height="1024" fill="url(#light)"/>

  <g>
    <path d="M 720 408 Q 716 388 722 368" stroke="#5C7A3F" stroke-width="3" fill="none" stroke-linecap="round" opacity="0.85"/>
    <path d="M 722 376 Q 752 364 768 384 Q 756 396 740 392 Q 725 388 722 382 Z" fill="#7B9560" opacity="0.88"/>
    <circle cx="706" cy="422" r="24" fill="#5C2C5C" opacity="0.22" filter="url(#softer)"/>
    <circle cx="705" cy="420" r="22" fill="#5C2C5C" opacity="0.88"/>
    <circle cx="702" cy="417" r="18" fill="#5C2C5C" opacity="0.52"/>
    <circle cx="699" cy="413" r="5" fill="#FFFFFF" opacity="0.5"/>
    <circle cx="699" cy="412" r="2" fill="#FFFFFF" opacity="0.85"/>
    <circle cx="741" cy="422" r="24" fill="#5C2C5C" opacity="0.22" filter="url(#softer)"/>
    <circle cx="740" cy="420" r="22" fill="#5C2C5C" opacity="0.74"/>
    <circle cx="737" cy="417" r="18" fill="#5C2C5C" opacity="0.52"/>
    <circle cx="734" cy="413" r="5" fill="#FFFFFF" opacity="0.5"/>
    <circle cx="734" cy="412" r="2" fill="#FFFFFF" opacity="0.85"/>
    <circle cx="689" cy="460" r="24" fill="#5C2C5C" opacity="0.22" filter="url(#softer)"/>
    <circle cx="688" cy="458" r="22" fill="#5C2C5C" opacity="0.88"/>
    <circle cx="685" cy="455" r="18" fill="#5C2C5C" opacity="0.52"/>
    <circle cx="682" cy="451" r="5" fill="#FFFFFF" opacity="0.5"/>
    <circle cx="682" cy="450" r="2" fill="#FFFFFF" opacity="0.85"/>
    <circle cx="723" cy="460" r="24" fill="#5C2C5C" opacity="0.22" filter="url(#softer)"/>
    <circle cx="722" cy="458" r="22" fill="#5C2C5C" opacity="0.74"/>
    <circle cx="719" cy="455" r="18" fill="#5C2C5C" opacity="0.52"/>
    <circle cx="716" cy="451" r="5" fill="#FFFFFF" opacity="0.5"/>
    <circle cx="716" cy="450" r="2" fill="#FFFFFF" opacity="0.85"/>
    <circle cx="759" cy="460" r="24" fill="#5C2C5C" opacity="0.22" filter="url(#softer)"/>
    <circle cx="758" cy="458" r="22" fill="#5C2C5C" opacity="0.88"/>
    <circle cx="755" cy="455" r="18" fill="#5C2C5C" opacity="0.52"/>
    <circle cx="752" cy="451" r="5" fill="#FFFFFF" opacity="0.5"/>
    <circle cx="752" cy="450" r="2" fill="#FFFFFF" opacity="0.85"/>
    <circle cx="706" cy="497" r="24" fill="#5C2C5C" opacity="0.22" filter="url(#softer)"/>
    <circle cx="705" cy="495" r="22" fill="#5C2C5C" opacity="0.74"/>
    <circle cx="702" cy="492" r="18" fill="#5C2C5C" opacity="0.52"/>
    <circle cx="699" cy="488" r="5" fill="#FFFFFF" opacity="0.5"/>
    <circle cx="699" cy="487" r="2" fill="#FFFFFF" opacity="0.85"/>
    <circle cx="741" cy="497" r="24" fill="#5C2C5C" opacity="0.22" filter="url(#softer)"/>
    <circle cx="740" cy="495" r="22" fill="#5C2C5C" opacity="0.88"/>
    <circle cx="737" cy="492" r="18" fill="#5C2C5C" opacity="0.52"/>
    <circle cx="734" cy="488" r="5" fill="#FFFFFF" opacity="0.5"/>
    <circle cx="734" cy="487" r="2" fill="#FFFFFF" opacity="0.85"/>
    <path d="M 660 525 Q 720 522 800 525" stroke="#5F7142" stroke-width="0.4" fill="none" opacity="0.25"/>
    <circle cx="691" cy="546" r="16" fill="#A33A5C" opacity="0.22" filter="url(#softer)"/>
    <circle cx="690" cy="545" r="14" fill="#A33A5C" opacity="0.92"/>
    <circle cx="686" cy="538" r="4" fill="#FFFFFF" opacity="0.55"/>
    <circle cx="731" cy="541" r="14" fill="#3A1F3A" opacity="0.22" filter="url(#softer)"/>
    <circle cx="730" cy="540" r="12" fill="#3A1F3A" opacity="0.92"/>
    <circle cx="726" cy="534" r="4" fill="#FFFFFF" opacity="0.55"/>
    <circle cx="761" cy="556" r="15" fill="#C44A6E" opacity="0.22" filter="url(#softer)"/>
    <circle cx="760" cy="555" r="13" fill="#C44A6E" opacity="0.92"/>
    <circle cx="756" cy="549" r="4" fill="#FFFFFF" opacity="0.55"/>
    <circle cx="701" cy="581" r="12" fill="#A33A5C" opacity="0.22" filter="url(#softer)"/>
    <circle cx="700" cy="580" r="10" fill="#A33A5C" opacity="0.92"/>
    <circle cx="697" cy="575" r="3" fill="#FFFFFF" opacity="0.55"/>
    <circle cx="741" cy="589" r="13" fill="#5C2C5C" opacity="0.22" filter="url(#softer)"/>
    <circle cx="740" cy="588" r="11" fill="#5C2C5C" opacity="0.92"/>
    <circle cx="737" cy="583" r="3" fill="#FFFFFF" opacity="0.55"/>
    <circle cx="771" cy="581" r="11" fill="#7C2A4C" opacity="0.22" filter="url(#softer)"/>
    <circle cx="770" cy="580" r="9" fill="#7C2A4C" opacity="0.92"/>
    <circle cx="767" cy="576" r="3" fill="#FFFFFF" opacity="0.55"/>
    <g fill="#1F0F1F" opacity="0.55">
      <circle cx="724" cy="535" r="2.5"/>
      <circle cx="734" cy="538" r="2.5"/>
      <circle cx="729" cy="545" r="2.5"/>
    </g>
    <path d="M 654 540 Q 668 530 680 540 Q 668 548 654 540 Z" fill="#5F7142" opacity="0.55"/>
  </g>
</svg>